<svg width="631" height="631" viewBox="0 0 631 631" fill="none" xmlns="http://www.w3.org/2000/svg">
<g clip-path="url(#clip0_18_20)">
<path d="M315.05 628.6C488.219 628.6 628.6 488.219 628.6 315.05C628.6 141.881 488.219 1.5 315.05 1.5C141.881 1.5 1.5 141.881 1.5 315.05C1.5 488.219 141.881 628.6 315.05 628.6Z" stroke="black" stroke-width="3" stroke-miterlimit="10"/>
<path d="M315.05 628.6V2.02002" stroke="black" stroke-width="3" stroke-miterlimit="10"/>
<path d="M315.05 612.09C315.05 439.07 174.9 298.78 1.93 298.55C1.65 304.01 1.5 309.51 1.5 315.05C1.5 488.07 141.65 628.36 314.62 628.59C314.9 623.13 315.05 617.63 315.05 612.09Z" stroke="black" stroke-width="3" stroke-miterlimit="10"/>
<path d="M628.6 315.05C628.6 309.52 628.45 304.01 628.17 298.55C455.2 298.78 315.05 439.07 315.05 612.09C315.05 617.62 315.2 623.13 315.48 628.59C488.45 628.36 628.6 488.07 628.6 315.05Z" stroke="black" stroke-width="3" stroke-miterlimit="10"/>
<path d="M552.93 484.56C552.93 484.56 547.53 509.51 504.54 511.66C483.89 512.69 474.43 509.31 438.91 492.74C397.24 473.3 354.13 436.61 328.65 461.19C318.35 471.13 314.61 483.16 315.05 494.87C316.86 543.61 372.26 566.19 426.96 510C452.01 484.26 466.77 442.86 478.77 401.48C501.43 323.35 488.63 231.25 488.63 231.25" stroke="black" stroke-width="3" stroke-miterlimit="10"/>
<path d="M472.52 443.36C462.71 461.89 451.8 479.18 440.85 494.07C439.73 493.25 440.72 494.42 439.3 493.32C452.98 474.3 463 449.39 468.09 425.07C473.57 398.91 476.22 342.91 476.22 342.91L477.06 310.4C477.06 310.4 472.67 172.1 486.95 141.5C497.02 119.92 518.41 117.51 536.85 121.02C530.16 123.72 529.13 122.85 525.77 125.94C514.15 136.61 511.78 169.24 511.18 185.88C510.27 211 510.79 236.68 511.09 262.28C511.24 275.03 510.45 293.19 509.48 309.81C506.78 356.45 494.37 402.08 472.51 443.36H472.52Z" fill="black"/>
<path d="M89.93 440.67L92.09 457.87C98.07 505.57 140.15 542.52 191.15 543.59C191.98 543.61 192.82 543.62 193.66 543.62C233.86 543.62 279.01 523.43 299.12 490.64C319.22 457.86 319.22 417.47 299.12 384.69C279.02 351.91 241.87 331.71 201.66 331.71C161.46 331.71 124.31 311.52 104.2 278.73C84.1 245.95 84.1 205.56 104.2 172.78C124.3 140 161.45 119.8 201.66 119.8C202.5 119.8 203.33 119.8 204.17 119.83C241.08 120.6 274.21 139.15 293.5 167.59C299.98 177.14 304.55 187.72 307.45 198.72L315.07 227.69" stroke="black" stroke-width="3" stroke-miterlimit="10"/>
<path d="M125.48 290.65C120.63 279.38 118.29 255.25 118.29 255.25L116.83 244.03C114.58 226.73 114.82 209.21 117.56 191.97L118.29 187.35C118.29 187.35 120.64 166.78 125.48 157.17C129.98 148.24 138.86 139.09 150.96 132.1C149.7 131.7 150.58 132.13 149.59 131.83C124.69 145.88 104.53 165.36 94.7201 190.87C94.4701 191.8 73.8201 252.1 113.69 290.87C124.54 301.42 136.85 311.95 149.59 320.38C150.58 320.02 149.7 320.53 150.96 320.06C138.86 311.86 129.99 301.13 125.48 290.66V290.65Z" fill="black"/>
<path d="M109.11 401.36C104.63 402.07 100.49 404.07 97.27 407.07C95.94 408.31 94.9 409.31 94.96 409.33C88.93 415.21 87.44 426.29 87.18 434.33C86.78 446.66 89.82 458.27 93.35 470C94.17 470 94.62 469.95 95.44 469.94C90.98 460.82 91.34 448.13 98.93 440.46C105.53 433.8 115.48 436.18 122.51 430.03C130.99 422.61 127.58 406.45 116.71 402.2C114.89 401.49 111.06 401.04 109.12 401.35L109.11 401.36Z" fill="black"/>
<path d="M517.93 120.92C517.93 120.92 555.29 119.21 562.5 122.47" stroke="black" stroke-width="3" stroke-miterlimit="10"/>
<path d="M554.45 488.24C554.32 492.77 552.87 497.13 550.3 500.71C549.24 502.18 548.38 503.35 548.35 503.29C543.28 510.02 532.49 512.92 524.55 514.2C512.37 516.17 500.47 514.64 488.38 512.64C488.28 511.83 488.18 511.02 488.09 510.21C497.71 513.47 510.33 511.85 516.97 503.34C522.74 495.94 519.11 486.38 524.3 478.62C530.57 469.26 547.55 472.35 553.16 482.59C554.1 484.3 554.51 486.27 554.46 488.24H554.45Z" fill="black"/>
</g>
<defs>
<clipPath id="clip0_18_20">
<rect width="630.1" height="630.1" fill="white"/>
</clipPath>
</defs>
</svg>
